<?xml version="1.0" encoding="utf-8"?>
<!-- Svg Vector Icons : http://www.onlinewebfonts.com/icon -->
<!DOCTYPE svg PUBLIC "-//W3C//DTD SVG 1.1//EN" "http://www.w3.org/Graphics/SVG/1.1/DTD/svg11.dtd">
<svg version="1.1" xmlns="http://www.w3.org/2000/svg" xmlns:xlink="http://www.w3.org/1999/xlink" x="0px" y="0px" viewBox="0 0 1000 1000" enable-background="new 0 0 1000 1000" xml:space="preserve">
<metadata> Svg Vector Icons : http://www.onlinewebfonts.com/icon </metadata>
<g><path d="M989.5,479.6c0.3,6.8,0.5,13.6,0.5,20.4s-0.2,13.6-0.5,20.4H989c-3,73.4-21.9,142.6-53.8,204.2h0.3c-0.5,1-1.1,1.8-1.6,2.8c-5,9.5-10.5,18.7-16.1,27.8c-2,3.4-3.8,6.9-5.9,10.2h-0.3c-76,117.6-200.9,200.3-346,219.7c0.2,0.1,0.3,0.2,0.5,0.3c-2.7,0.4-5.5,0.5-8.1,0.8c-5,0.6-10,1.1-15,1.6c-14.1,1.3-28.3,2.2-42.8,2.2c-14.5,0-28.7-0.9-42.8-2.2c-5-0.4-10-1-15-1.6c-2.7-0.3-5.5-0.5-8.1-0.8c0.2-0.1,0.3-0.2,0.5-0.3c-145.1-19.4-270-102.1-346-219.7h-0.3c-2.1-3.3-3.9-6.9-5.9-10.2c-5.6-9.1-11.1-18.3-16.1-27.8c-0.5-1-1.1-1.8-1.6-2.8h0.3C33,663,14.1,593.8,11,520.4h-0.5c-0.3-6.8-0.5-13.6-0.5-20.4s0.2-13.6,0.5-20.4H11c3-73.4,21.9-142.6,53.8-204.2h-0.3c0.5-1,1.1-1.8,1.6-2.8c5-9.5,10.5-18.7,16.1-27.8c2-3.4,3.8-6.9,5.9-10.2h0.3c76-117.6,200.9-200.3,346-219.7c-0.2-0.1-0.3-0.2-0.5-0.3c2.7-0.4,5.5-0.5,8.1-0.8c5-0.6,10-1.1,15-1.6c14.1-1.3,28.3-2.2,42.8-2.2c14.5,0,28.7,0.9,42.8,2.2c5,0.4,10,1,15,1.6c2.7,0.3,5.5,0.5,8.1,0.8c-0.2,0.1-0.3,0.2-0.5,0.3c145.1,19.4,270,102.1,346,219.7h0.3c2.1,3.3,3.9,6.9,5.9,10.2c5.6,9.1,11.1,18.3,16.1,27.8c0.5,1,1.1,1.8,1.6,2.8h-0.3C967,337,985.9,406.2,989,479.6H989.5z M948.2,520.4H743.9c-2.4,72-17.6,140.5-42.7,204.2h187.2C923.5,664.1,944.8,594.7,948.2,520.4z M362.1,234.6h117.5V81.2C432.3,125.2,392.3,176.8,362.1,234.6z M637.9,765.4H520.4v153.4C567.7,874.8,607.7,823.2,637.9,765.4z M479.6,918.8V765.4H362.1C392.3,823.2,432.3,874.8,479.6,918.8z M479.6,724.6V520.4H297c2.6,72.4,19.2,141,46.1,204.2H479.6z M479.6,479.6V275.4H343c-26.9,63.1-43.5,131.8-46.1,204.2H479.6z M520.4,81.2v153.4h117.5C607.7,176.8,567.7,125.2,520.4,81.2z M520.4,275.4v204.2H703c-2.6-72.4-19.2-141-46.1-204.2H520.4z M520.4,520.4v204.2H657c26.9-63.1,43.5-131.8,46.1-204.2H520.4z M861.6,765.4H684c-32.6,68-77.9,128.6-132.2,179.8C678.8,930.5,789.5,863.2,861.6,765.4z M448.2,945.2C393.9,894,348.7,833.4,316,765.4H138.4C210.5,863.2,321.2,930.5,448.2,945.2z M111.6,724.6h187.2c-25-63.6-40.3-132.2-42.7-204.2H51.8C55.2,594.7,76.5,664.1,111.6,724.6z M51.8,479.6h204.3c2.4-72,17.6-140.5,42.7-204.2H111.6C76.5,335.9,55.2,405.3,51.8,479.6z M138.4,234.6H316c32.6-68,77.9-128.6,132.2-179.8C321.2,69.5,210.5,136.8,138.4,234.6z M551.8,54.8C606.1,106,651.3,166.6,684,234.6h177.6C789.5,136.8,678.8,69.5,551.8,54.8z M888.4,275.4H701.2c25,63.6,40.3,132.2,42.7,204.2h204.3C944.8,405.3,923.5,335.9,888.4,275.4z"/></g>
</svg>